<svg width="55" height="64" viewBox="0 0 55 64" fill="none" xmlns="http://www.w3.org/2000/svg">
<path fill-rule="evenodd" clip-rule="evenodd" d="M3.87072 0.0974438C1.96352 0.544166 0.45092 2.18995 0.122666 4.17566C-0.0431668 5.17878 -0.0397541 58.8631 0.126206 59.8683C0.402636 61.5423 1.41685 62.8555 3.01148 63.6037L3.85581 64H27.4355H51.0151L51.9799 63.5277C53.5135 62.7769 54.4596 61.5127 54.7351 59.8459C54.8978 58.8619 54.8978 5.15963 54.7351 4.17566C54.4596 2.50884 53.5135 1.24467 51.9799 0.493835L51.0151 0.0215712L27.6883 0.00203958C13.8901 -0.00960424 4.16093 0.0294589 3.87072 0.0974438ZM49.8012 32.0108V59.1797H27.4289H5.05658V32.0108V4.84186H27.4289H49.8012V32.0108ZM36.3399 10.0554C36.1314 10.1628 32.9172 13.2597 29.1975 16.9372L22.4341 23.6235L20.6656 21.8571C19.6929 20.8857 18.7141 20.012 18.4903 19.9159C17.6144 19.5391 16.2328 19.7984 15.6576 20.4476C15.0507 21.1324 14.8564 22.3268 15.2169 23.1567C15.3132 23.3783 16.7209 24.8645 18.3452 26.4592C20.8795 28.9473 21.367 29.3715 21.7805 29.4481C22.5258 29.5864 23.3417 29.4449 23.8611 29.0873C24.1202 28.9089 27.728 25.3948 31.8785 21.2784C37.0939 16.1056 39.4852 13.6501 39.6203 13.3283C40.1375 12.097 39.6462 10.6554 38.5263 10.1184C37.8612 9.7995 36.8907 9.77158 36.3399 10.0554ZM12.198 36.9552C12.1285 36.9782 11.9163 37.0309 11.7263 37.0723C10.9031 37.252 9.99467 38.4714 9.98886 39.4045C9.98418 40.1441 10.5527 41.102 11.2307 41.4967L11.8188 41.8392H24.9642C37.8822 41.8392 38.1169 41.8348 38.5385 41.5888C38.7745 41.451 39.1415 41.125 39.3544 40.8642C39.6734 40.4732 39.7501 40.2519 39.7919 39.6018C39.8746 38.3151 39.2039 37.3622 37.9831 37.0319C37.6321 36.9369 33.6307 36.8979 24.901 36.9043C17.9839 36.9093 12.2675 36.9322 12.198 36.9552ZM11.4058 47.1067C9.8502 47.8746 9.54988 49.7665 10.7888 50.993C11.5993 51.7952 11.7736 51.8113 19.1695 51.7679C26.3109 51.726 25.9709 51.7665 26.7724 50.8623C27.8296 49.6696 27.4846 47.7758 26.0848 47.0875C25.6242 46.861 25.2077 46.8453 18.8334 46.8128L12.0706 46.7784L11.4058 47.1067Z" fill="#2B5227"/>
</svg>
