<svg width="64" height="64" viewBox="0 0 64 64" fill="none" xmlns="http://www.w3.org/2000/svg">
<path fill-rule="evenodd" clip-rule="evenodd" d="M29.7057 0.0890258C22.675 1.0543 16.9387 5.609 14.4306 12.2178L14.0269 13.2814L12.7317 13.5017C9.55645 14.0417 6.94731 15.3242 4.72558 17.4369C-1.30369 23.1702 -1.60138 32.4964 4.05036 38.591C5.62979 40.2942 7.99467 41.8312 10.148 42.5541C12.1855 43.2379 12.5315 43.2771 17.1005 43.3395L21.388 43.3982L21.355 47.1703L21.3218 50.9423L19.2829 52.3504L17.244 53.7584L16.6307 53.4378C14.3927 52.2676 11.8342 52.6578 10.0509 54.441C7.82962 56.6623 7.82962 60.1278 10.0509 62.3389C12.2153 64.4934 15.5613 64.5598 17.8246 62.4929C19.1106 61.3186 19.8298 59.2849 19.5499 57.6145C19.4775 57.1817 19.4586 56.7994 19.5081 56.765C19.5577 56.7306 20.7372 55.9158 22.1294 54.9546C24.1328 53.5711 24.7104 53.109 24.8995 52.7385C25.1213 52.3036 25.1383 51.9525 25.1383 47.823V43.3758H27.641H30.1437V49.7C30.1437 55.7913 30.1529 56.0423 30.3955 56.518C30.6788 57.0732 31.3997 57.5158 32.0206 57.5158C32.6416 57.5158 33.3624 57.0732 33.6457 56.518C33.8884 56.0423 33.8976 55.7913 33.8976 49.7V43.3758H36.4003H38.9029V47.8304C38.9029 51.6861 38.9303 52.3427 39.1067 52.7142C39.2648 53.0477 39.9065 53.5545 41.982 54.9855C43.9143 56.3178 44.6339 56.8795 44.5822 57.0153C44.4137 57.4577 44.3863 58.6933 44.5288 59.4202C44.7599 60.6002 45.235 61.4887 46.0891 62.3389C49.3349 65.5699 54.7922 63.8122 55.5684 59.2858C55.9735 56.9229 54.6632 54.3731 52.5235 53.3611C50.8168 52.5539 49.0503 52.5804 47.4106 53.4378L46.7973 53.7584L44.7584 52.3504L42.7195 50.9423L42.6863 47.1703L42.6533 43.3982L46.9408 43.3411C50.6996 43.2911 51.3598 43.2525 52.2921 43.0287C58.1396 41.6243 62.4259 37.2564 63.76 31.3428C64.0645 29.9932 64.0629 26.7602 63.7572 25.3567C62.7114 20.5561 59.3975 16.457 55.0481 14.5838C53.7561 14.0273 52.8697 13.7729 51.2493 13.4936L50.0189 13.2814L49.6064 12.2133C47.2006 5.98277 42.1812 1.69097 35.7121 0.333035C34.2593 0.0279611 31.0882 -0.1008 29.7057 0.0890258ZM35.0061 4.01106C40.5932 5.2276 44.9318 9.30405 46.519 14.8284C46.9227 16.2331 47.2728 16.7493 47.9644 16.9589C48.1768 17.0232 48.9699 17.1064 49.7269 17.1439C52.2615 17.2687 54.4089 18.1319 56.4095 19.8297C57.9434 21.1316 59.3842 23.4583 59.948 25.5444C60.3029 26.857 60.3358 29.6064 60.0122 30.9037C58.8164 35.6985 54.8435 39.1303 49.9778 39.5713L49.0387 39.6563V33.6723C49.0387 27.8965 49.0298 27.6696 48.7823 27.1586C48.4736 26.5208 48.2995 26.4261 43.7831 24.439L40.5922 23.0351L40.5297 19.9726C40.4891 17.9898 40.416 16.822 40.3222 16.66C40.0026 16.1083 39.4612 15.7971 36.7679 14.6174L33.9602 13.3876L33.8958 12.4586C33.8172 11.3263 33.5545 10.8015 32.899 10.4672C32.2747 10.1486 31.7666 10.1486 31.1423 10.4672C30.4849 10.8025 30.224 11.3259 30.1455 12.4669L30.0811 13.4043L27.268 14.6308C25.7207 15.3054 24.3217 15.9816 24.1591 16.1335C23.5286 16.7222 23.5116 16.841 23.5116 20.658V24.2305H19.9936C16.6087 24.2305 16.4573 24.2409 15.9894 24.5038C15.6796 24.678 15.4124 24.9646 15.2529 25.2941C15.0119 25.792 15.0026 26.0667 15.0026 32.7338V39.6563L14.0635 39.5713C9.20233 39.1307 5.22373 35.6941 4.02909 30.9037C3.70412 29.6007 3.73828 26.8548 4.09579 25.5444C4.6769 23.4144 5.97979 21.29 7.54169 19.9259C9.57022 18.1542 11.7182 17.2719 14.3144 17.1439C15.0714 17.1064 15.8645 17.0232 16.0769 16.9589C16.7673 16.7496 17.1185 16.2328 17.5245 14.8284C19.2222 8.95705 23.947 4.78388 29.9663 3.839C31.0142 3.67458 33.9154 3.77356 35.0061 4.01106ZM34.4711 17.7108L36.7131 18.6991L36.7452 29.1605L36.7771 39.6218H32.0206H27.2642L27.2961 29.1576L27.3282 18.6935L29.5806 17.712C30.8194 17.1721 31.922 16.7287 32.031 16.7265C32.14 16.7243 33.2381 17.1673 34.4711 17.7108ZM43.2826 28.3296L45.2221 29.1938L45.2548 34.4078L45.2875 39.6218H42.9086H40.5297V33.3716V27.1213L40.9363 27.2934C41.1601 27.388 42.2158 27.8542 43.2826 28.3296ZM23.5116 33.8031V39.6218H21.1341H18.7566V33.8031V27.9845H21.1341H23.5116V33.8031ZM14.877 56.7798C15.4267 57.0887 15.8785 57.8159 15.8785 58.3917C15.8785 59.3253 14.9305 60.2687 13.9923 60.2687C13.0718 60.2687 12.1246 59.3167 12.1246 58.3917C12.1246 57.79 12.5674 57.0517 13.0957 56.7727C13.7072 56.4499 14.2942 56.4522 14.877 56.7798ZM50.9152 56.7798C51.4649 57.0887 51.9167 57.8159 51.9167 58.3917C51.9167 59.3253 50.9687 60.2687 50.0305 60.2687C49.11 60.2687 48.1628 59.3167 48.1628 58.3917C48.1628 57.79 48.6056 57.0517 49.1339 56.7727C49.7454 56.4499 50.3324 56.4522 50.9152 56.7798Z" fill="#2B5227"/>
</svg>
