<svg width="64" height="64" viewBox="0 0 64 64" fill="none" xmlns="http://www.w3.org/2000/svg">
<path fill-rule="evenodd" clip-rule="evenodd" d="M29.1535 0.158467C26.3777 0.769177 24.0448 3.12533 23.4601 5.90892C23.359 6.39053 23.2753 7.2797 23.274 7.88478C23.2721 8.88466 23.2439 9.01313 22.9647 9.29209C22.7957 9.46097 22.5473 9.5992 22.4126 9.5992C22.2778 9.5992 21.6184 9.11846 20.9474 8.53077C19.1067 6.91893 17.619 6.30159 15.5757 6.30159C12.9874 6.30159 10.9381 7.45421 8.43214 10.3195C6.95811 12.005 6.33265 13.5604 6.33265 15.5412C6.33265 17.5837 6.95022 19.0708 8.56267 20.9108C9.15058 21.5816 9.6315 22.2407 9.6315 22.3754C9.6315 22.5102 9.49322 22.7585 9.32428 22.9274C9.04521 23.2064 8.91669 23.2347 7.91644 23.2366C5.52661 23.2413 3.78415 23.928 2.23678 25.4748C0.520963 27.1901 0 28.7077 0 31.9911C0 35.2744 0.520963 36.792 2.23678 38.5073C3.78415 40.0541 5.52661 40.7408 7.91644 40.7455C8.91669 40.7474 9.04521 40.7757 9.32428 41.0548C9.49322 41.2236 9.6315 41.4719 9.6315 41.6067C9.6315 41.7414 9.15058 42.4005 8.56267 43.0713C6.95022 44.9113 6.33265 46.3984 6.33265 48.4409C6.33265 50.4217 6.95811 51.9771 8.43214 53.6626C10.339 55.8429 12.1333 57.111 13.8863 57.5174C15.022 57.7807 16.6719 57.7053 17.8283 57.3373C19.0526 56.9476 19.7708 56.504 21.1175 55.3055C21.6876 54.7981 22.2674 54.3829 22.4058 54.3829C22.5443 54.3829 22.7957 54.5211 22.9647 54.69C23.2439 54.969 23.2721 55.0975 23.274 56.0973C23.2788 58.4863 23.9657 60.2281 25.5131 61.7749C26.2051 62.4666 26.7178 62.8492 27.4016 63.1839C28.9209 63.9277 29.7273 64.0359 33.4145 63.9914L36.6185 63.9526L37.1254 63.617C37.4042 63.4325 37.766 63.0666 37.9293 62.8039L38.2263 62.3264V57.7605V53.1945L37.9293 52.717C37.766 52.4543 37.404 52.0884 37.125 51.9039C36.7024 51.6243 36.4788 51.5683 35.786 51.5683C35.0932 51.5683 34.8696 51.6243 34.447 51.9039C34.1681 52.0884 33.806 52.4543 33.6427 52.717C33.3559 53.1784 33.3444 53.2936 33.3061 56.115L33.2663 59.0355L31.6057 58.9921C30.0339 58.9512 29.9189 58.9306 29.4555 58.6068C28.5216 57.9546 28.3666 57.5758 28.2728 55.717C28.1778 53.8374 27.9353 52.9844 27.1867 51.8968C25.9761 50.138 23.5145 49.117 21.397 49.4951C20.1485 49.7182 19.1302 50.2698 18.023 51.3231C16.8822 52.4082 16.4103 52.6674 15.5757 52.6674C14.704 52.6674 14.2492 52.4024 12.9698 51.149C11.6838 49.8892 11.3477 49.3277 11.3477 48.4392C11.3477 47.6068 11.6076 47.1343 12.6925 45.9946C14.7075 43.8778 15.1516 41.4576 13.9633 39.0688C13.412 37.9608 12.9579 37.4115 12.111 36.8291C11.0307 36.0861 10.1741 35.8435 8.29687 35.7486C6.43727 35.6548 6.05821 35.4998 5.40598 34.5661C5.06647 34.0803 5.06384 34.0602 5.06384 31.9911C5.06384 29.9219 5.06647 29.9019 5.40598 29.416C6.05821 28.4823 6.43727 28.3273 8.29687 28.2335C10.1741 28.1387 11.0307 27.896 12.111 27.153C12.9579 26.5706 13.412 26.0213 13.9633 24.9134C15.1516 22.5246 14.7075 20.1044 12.6925 17.9875C11.607 16.8472 11.3477 16.3754 11.3477 15.5412C11.3477 14.6698 11.6127 14.2152 12.8666 12.9362C14.1269 11.6507 14.6886 11.3147 15.5775 11.3147C16.4102 11.3147 16.8828 11.5746 18.023 12.659C20.1406 14.6733 22.5617 15.1172 24.9514 13.9293C26.0598 13.3783 26.6093 12.9243 27.1919 12.0778C27.9322 11.0024 28.1779 10.1399 28.2725 8.28571C28.3481 6.80384 28.3852 6.61508 28.6903 6.15911C28.8743 5.8839 29.2328 5.518 29.4865 5.346C29.9109 5.05853 30.0821 5.02976 31.6072 4.98998L33.2663 4.94657L33.3061 7.86715C33.3444 10.6885 33.3559 10.8037 33.6427 11.2651C33.806 11.5278 34.1681 11.8937 34.447 12.0782C34.8696 12.3578 35.0932 12.4138 35.786 12.4138C36.4788 12.4138 36.7024 12.3578 37.125 12.0782C37.404 11.8937 37.766 11.5278 37.9293 11.2651L38.2263 10.7876V6.22166V1.65572L37.9293 1.17823C37.766 0.915537 37.4042 0.549637 37.1254 0.365123L36.6185 0.0294949L33.2927 0.0044761C30.7928 -0.014288 29.765 0.0238657 29.1535 0.158467ZM58.6536 7.10044C56.8101 7.56542 55.5002 9.16162 55.3496 11.1266L55.2798 12.0385L52.5731 14.7593L49.8665 17.4801L40.4799 17.4809C32.8389 17.4815 30.8651 17.516 29.8665 17.6664C24.5083 18.4738 20.0066 22.2752 18.269 27.4596C15.743 34.9961 19.8933 43.2016 27.5234 45.757C29.6547 46.4708 30.1708 46.5005 40.4795 46.5012L49.8655 46.502L52.5682 49.1212L55.2708 51.7406L55.3422 52.6851C55.472 54.3997 56.4106 55.788 57.9115 56.4855C58.5063 56.762 58.8004 56.8169 59.688 56.8169C60.9902 56.8169 61.8713 56.4602 62.7572 55.5746C63.6432 54.689 64 53.8082 64 52.5065C64 51.2048 63.6432 50.324 62.7572 49.4384C61.9058 48.5872 60.9979 48.2126 59.6981 48.1761L58.6445 48.1465L55.6311 45.1531C53.9736 43.5066 52.4204 42.0249 52.1795 41.8602L51.7415 41.5608L41.042 41.4912C29.0778 41.4134 29.8239 41.4702 27.8396 40.4863C25.3855 39.2698 23.5297 37.0092 22.8166 34.3678C22.5145 33.2488 22.5145 30.7334 22.8166 29.6143C23.5297 26.9729 25.3855 24.7123 27.8396 23.4958C29.8239 22.5119 29.0778 22.5687 41.042 22.4909L51.7415 22.4214L52.1795 22.122C52.4204 21.9573 54.0033 20.4457 55.6971 18.763L58.7767 15.7034L59.7642 15.6778C60.992 15.646 61.9199 15.2556 62.7572 14.4186C63.6432 13.533 64 12.6522 64 11.3505C64 10.4632 63.9451 10.1693 63.6685 9.57468C63.2498 8.67438 62.3735 7.79259 61.5009 7.39316C60.7398 7.0449 59.4145 6.90867 58.6536 7.10044ZM31.9985 27.7415C30.7617 28.0521 29.6078 29.0211 29.0524 30.2152C28.7759 30.8098 28.7209 31.1038 28.7209 31.9911C28.7209 33.2928 29.0777 34.1736 29.9637 35.0591C30.8452 35.9404 31.7294 36.2988 33.0329 36.3032C33.9596 36.3063 34.1926 36.2596 34.8421 35.9409C35.2522 35.7396 35.8243 35.3316 36.1136 35.034L36.6397 34.4929H46.3605H56.0812L56.6073 35.034C56.8966 35.3316 57.4688 35.7396 57.8788 35.9409C58.5283 36.2596 58.7613 36.3063 59.688 36.3032C60.9915 36.2988 61.8757 35.9404 62.7572 35.0591C63.6432 34.1736 64 33.2928 64 31.9911C64 30.6893 63.6432 29.8085 62.7572 28.923C61.8757 28.0417 60.9915 27.6833 59.688 27.6789C58.7613 27.6758 58.5283 27.7225 57.8788 28.0412C57.4688 28.2425 56.8966 28.6505 56.6073 28.9481L56.0812 29.4892H46.3605H36.6397L36.1136 28.9481C35.0877 27.8928 33.3843 27.3933 31.9985 27.7415Z" fill="#2B5227"/>
</svg>
