<svg width="60" height="60" viewBox="0 0 60 60" fill="none" xmlns="http://www.w3.org/2000/svg">
<path fill-rule="evenodd" clip-rule="evenodd" d="M22.7842 0.0704451C15.103 0.931671 8.43616 5.00082 4.14378 11.4478C-0.340306 18.1827 -1.25488 26.9768 1.74128 34.5503C3.03188 37.8128 4.83041 40.5637 7.3069 43.0632C11.4352 47.2299 16.2247 49.6488 21.952 50.4599C23.6989 50.7072 27.0751 50.7059 28.7641 50.457C33.1685 49.8084 37.2057 48.1372 40.5523 45.5776L41.6406 44.7452L49.0968 52.2011C54.293 57.3972 56.6851 59.7116 56.9889 59.837C58.0728 60.2847 59.2761 59.7826 59.7903 58.668C60.0556 58.0926 60.0688 57.5663 59.8319 56.9924C59.7066 56.6885 57.3934 54.2951 52.2002 49.0959L44.7485 41.6356L45.5804 40.5468C48.1386 37.1983 49.8088 33.1588 50.4571 28.7521C50.7058 27.0621 50.7071 23.6841 50.4599 21.9362C49.6494 16.2057 47.2317 11.4136 43.0674 7.28299C39.2594 3.50585 34.4362 1.06365 29.1723 0.247477C27.7163 0.0216411 24.1101 -0.0783132 22.7842 0.0704451ZM28.7055 4.68348C34.7567 5.72033 39.9107 9.1799 43.1222 14.3606C45.1938 17.7026 46.1884 21.2156 46.2003 25.2325C46.2066 27.3435 46.0702 28.4931 45.5814 30.4532C43.7387 37.8419 37.849 43.7349 30.4643 45.5786C28.5053 46.0677 27.3564 46.2042 25.2465 46.1978C21.2318 46.186 17.7208 45.1908 14.3806 43.118C9.12702 39.8578 5.65704 34.6083 4.65207 28.4001C4.42507 26.9983 4.45427 23.3892 4.70437 21.9157C5.43673 17.6012 7.46754 13.6792 10.5836 10.5615C14.0923 7.05082 18.1232 5.14289 23.4291 4.48122C24.2297 4.38127 27.7237 4.51536 28.7055 4.68348ZM14.1076 13.1916C13.1944 13.6072 11.623 15.5745 10.6504 17.5196C9.51266 19.7951 9.08422 21.651 9.0732 24.3527C9.06651 25.973 9.09207 26.2215 9.3084 26.6341C10.0084 27.9691 11.6771 28.2877 12.8009 27.3007C13.3278 26.8381 13.4625 26.3174 13.4642 24.7386C13.4674 21.6481 14.3163 19.3127 16.2346 17.1169C17.2303 15.9771 17.4253 15.2589 16.9931 14.322C16.4635 13.174 15.2182 12.686 14.1076 13.1916Z" fill="#2B5227"/>
</svg>
