<svg width="186" height="60" viewBox="0 0 186 60" fill="none" xmlns="http://www.w3.org/2000/svg">
<path fill-rule="evenodd" clip-rule="evenodd" d="M39.9329 28.1853C39.9329 28.1853 40 12.0817 19.997 0C0.467884 12.0857 0.0610289 28.1853 0.0610289 28.1853C0.0223777 28.7011 0 29.2208 0 29.7445C0.00041667 34.1651 1.51757 38.4563 4.30633 41.925C7.09508 45.3937 10.9925 47.8372 15.369 48.8606V37.8983L8.13711 31.7015C7.65622 32.0302 7.07701 32.191 6.49215 32.1581C5.90729 32.1252 5.35056 31.9004 4.91103 31.5199C4.4715 31.1393 4.17456 30.6248 4.06771 30.0589C3.96087 29.4929 4.05029 28.908 4.32168 28.3978C4.59306 27.8877 5.03073 27.4817 5.56466 27.2448C6.09859 27.008 6.69795 26.9539 7.26684 27.0913C7.83573 27.2287 8.34128 27.5497 8.70263 28.0028C9.06398 28.4559 9.26025 29.0149 9.26003 29.5906C9.25942 29.7245 9.24854 29.8581 9.22748 29.9904L17.3931 36.9867V49.2204C18.2028 49.322 19.0179 49.3761 19.8342 49.3823V29.6905L12.464 24.1274V15.0861C11.9142 14.8388 11.4684 14.4121 11.2024 13.8784C10.9364 13.3448 10.8667 12.7371 11.0049 12.1586C11.1432 11.5801 11.481 11.0665 11.961 10.705C12.4409 10.3435 13.0334 10.1565 13.6378 10.1756C14.2422 10.1947 14.8213 10.4188 15.2766 10.8098C15.7319 11.2009 16.0355 11.7347 16.1356 12.3208C16.2358 12.9068 16.1264 13.5088 15.8261 14.0246C15.5258 14.5403 15.053 14.938 14.4881 15.1501V23.1459L19.8423 27.1779V19.5818C19.2813 19.3598 18.8156 18.954 18.5244 18.4331C18.2332 17.9122 18.1343 17.3083 18.2446 16.724C18.3549 16.1396 18.6675 15.6107 19.1295 15.2271C19.5914 14.8434 20.1742 14.6286 20.7789 14.6191C21.3837 14.6096 21.9732 14.806 22.4474 15.1749C22.9215 15.5438 23.2512 16.0626 23.3805 16.6432C23.5097 17.2238 23.4306 17.8305 23.1565 18.3603C22.8824 18.8901 22.4302 19.3103 21.8766 19.5498V30.0164L26.1628 25.8066V22.1525C25.6014 21.9316 25.1351 21.5265 24.8432 21.006C24.5513 20.4856 24.4517 19.8819 24.5614 19.2975C24.6711 18.7131 24.9833 18.184 25.445 17.8002C25.9066 17.4163 26.4893 17.2014 27.094 17.1918C27.6987 17.1823 28.2881 17.3787 28.7621 17.7478C29.236 18.1168 29.5654 18.6358 29.6942 19.2164C29.8229 19.797 29.7431 20.4036 29.4684 20.933C29.1936 21.4624 28.7409 21.882 28.187 22.1205V26.6281L21.8807 32.8249V49.3143C22.6406 49.2454 23.3958 49.134 24.1428 48.9805V36.9927L31.8161 30.4162C31.5986 29.8612 31.5833 29.2494 31.7728 28.6847C31.9623 28.1199 32.3449 27.637 32.8556 27.318C33.3664 26.999 33.9737 26.8636 34.5746 26.9347C35.1754 27.0058 35.7326 27.2791 36.1517 27.7082C36.5707 28.1372 36.8256 28.6956 36.8732 29.2884C36.9208 29.8812 36.7581 30.472 36.4127 30.9603C36.0674 31.4486 35.5606 31.8043 34.9786 31.9672C34.3965 32.13 33.7751 32.0898 33.2198 31.8534L26.1669 37.8983V48.4408C30.1873 47.1604 33.6915 44.6614 36.1767 41.3025C38.6619 37.9436 40.0004 33.8974 40 29.7445C39.9959 29.2208 39.9736 28.7011 39.9329 28.1853Z" fill="#6EBE47"/>
<path fill-rule="evenodd" clip-rule="evenodd" d="M35.805 29.3925C35.805 29.6684 35.7212 29.938 35.5642 30.1673C35.4071 30.3966 35.1839 30.5754 34.9228 30.6809C34.6617 30.7864 34.3743 30.8141 34.0971 30.7603C33.8199 30.7064 33.5652 30.5736 33.3654 30.3786C33.1655 30.1836 33.0294 29.9351 32.9742 29.6646C32.9191 29.3941 32.9474 29.1137 33.0556 28.8589C33.1637 28.6041 33.3469 28.3863 33.5819 28.2331C33.8169 28.0798 34.0932 27.998 34.3759 27.998C34.7549 27.998 35.1184 28.145 35.3864 28.4065C35.6545 28.668 35.805 29.0227 35.805 29.3925Z" fill="#6EBE47"/>
<path fill-rule="evenodd" clip-rule="evenodd" d="M28.6556 19.6933C28.6556 19.9691 28.5718 20.2387 28.4148 20.4681C28.2577 20.6974 28.0345 20.8761 27.7734 20.9817C27.5122 21.0872 27.2249 21.1148 26.9477 21.061C26.6705 21.0072 26.4158 20.8744 26.2159 20.6794C26.0161 20.4844 25.88 20.2359 25.8248 19.9654C25.7697 19.6949 25.798 19.4145 25.9062 19.1597C26.0143 18.9049 26.1975 18.6871 26.4325 18.5338C26.6675 18.3806 26.9438 18.2988 27.2265 18.2988C27.6055 18.2988 27.969 18.4457 28.237 18.7073C28.505 18.9688 28.6556 19.3235 28.6556 19.6933Z" fill="#6EBE47"/>
<path fill-rule="evenodd" clip-rule="evenodd" d="M22.326 17.1338C22.326 17.4096 22.2422 17.6792 22.0852 17.9085C21.9281 18.1378 21.7049 18.3166 21.4438 18.4221C21.1827 18.5277 20.8953 18.5553 20.6181 18.5015C20.3409 18.4477 20.0862 18.3148 19.8864 18.1198C19.6865 17.9248 19.5504 17.6763 19.4952 17.4058C19.4401 17.1353 19.4684 16.8549 19.5766 16.6001C19.6847 16.3453 19.8679 16.1275 20.1029 15.9743C20.3379 15.821 20.6142 15.7393 20.8969 15.7393C21.2759 15.7393 21.6394 15.8862 21.9074 16.1477C22.1755 16.4092 22.326 16.7639 22.326 17.1338Z" fill="#6EBE47"/>
<path fill-rule="evenodd" clip-rule="evenodd" d="M15.035 12.6992C15.035 12.975 14.9512 13.2446 14.7942 13.4739C14.6371 13.7033 14.4139 13.882 14.1528 13.9875C13.8916 14.0931 13.6043 14.1207 13.3271 14.0669C13.0499 14.0131 12.7952 13.8803 12.5953 13.6852C12.3955 13.4902 12.2594 13.2417 12.2042 12.9712C12.1491 12.7007 12.1774 12.4203 12.2855 12.1655C12.3937 11.9107 12.5769 11.6929 12.8119 11.5397C13.0469 11.3865 13.3232 11.3047 13.6059 11.3047C13.9849 11.3047 14.3484 11.4516 14.6164 11.7131C14.8844 11.9746 15.035 12.3293 15.035 12.6992Z" fill="#6EBE47"/>
<path fill-rule="evenodd" clip-rule="evenodd" d="M8.10825 29.4853C8.10825 29.7611 8.02443 30.0307 7.8674 30.2601C7.71036 30.4894 7.48716 30.6681 7.22602 30.7737C6.96489 30.8792 6.67754 30.9068 6.40031 30.853C6.12309 30.7992 5.86845 30.6664 5.66858 30.4714C5.46872 30.2764 5.3326 30.0279 5.27746 29.7574C5.22232 29.4869 5.25062 29.2065 5.35879 28.9517C5.46695 28.6969 5.65013 28.4791 5.88515 28.3258C6.12016 28.1726 6.39647 28.0908 6.67912 28.0908C7.05815 28.0908 7.42165 28.2377 7.68966 28.4993C7.95768 28.7608 8.10825 29.1155 8.10825 29.4853Z" fill="#6EBE47"/>
<path fill-rule="evenodd" clip-rule="evenodd" d="M23.1203 59.9998H18.7227L19.917 49.219L21.9504 49.1357L23.1203 59.9998Z" fill="#6EBE47"/>
<path d="M53.824 26.16C53.5893 26.16 53.4027 26.096 53.264 25.968C53.136 25.8293 53.072 25.6427 53.072 25.408V19.376C53.072 17.8933 53.4933 16.736 54.336 15.904C55.1787 15.0613 56.3413 14.64 57.824 14.64C58.8053 14.64 59.6533 14.832 60.368 15.216C61.0933 15.5893 61.6427 16.1333 62.016 16.848C62.4 17.5627 62.592 18.4053 62.592 19.376V25.408C62.592 25.6427 62.5227 25.8293 62.384 25.968C62.2453 26.096 62.0587 26.16 61.824 26.16C61.6 26.16 61.4187 26.096 61.28 25.968C61.1413 25.8293 61.072 25.6427 61.072 25.408V22.144H54.576V25.408C54.576 25.6427 54.5067 25.8293 54.368 25.968C54.24 26.096 54.0587 26.16 53.824 26.16ZM61.072 20.928V19.328C61.072 18.2187 60.7947 17.3707 60.24 16.784C59.6853 16.1867 58.88 15.888 57.824 15.888C56.768 15.888 55.9627 16.1813 55.408 16.768C54.8533 17.344 54.576 18.1973 54.576 19.328V20.928H61.072ZM72.6163 30.784C72.3816 30.784 72.1949 30.7147 72.0563 30.576C71.9176 30.448 71.8483 30.2667 71.8483 30.032V24.656C71.4429 25.1467 70.9523 25.52 70.3763 25.776C69.8109 26.032 69.1816 26.16 68.4883 26.16C67.1869 26.16 66.1629 25.8027 65.4163 25.088C64.6803 24.3627 64.3123 23.3707 64.3123 22.112C64.3123 20.8107 64.6856 19.8027 65.4323 19.088C66.1789 18.3627 67.2296 18 68.5843 18C69.9709 18 71.0643 18.512 71.8643 19.536V18.752C71.8643 18.5173 71.9283 18.336 72.0563 18.208C72.1949 18.0693 72.3816 18 72.6163 18C72.8509 18 73.0269 18.064 73.1443 18.192C73.2723 18.32 73.3363 18.5067 73.3363 18.752V30.032C73.3363 30.2773 73.2723 30.464 73.1443 30.592C73.0269 30.72 72.8509 30.784 72.6163 30.784ZM68.7123 24.928C69.3203 24.928 69.8643 24.8107 70.3443 24.576C70.8243 24.3307 71.1976 23.9947 71.4643 23.568C71.7309 23.1307 71.8643 22.6347 71.8643 22.08C71.8643 21.1947 71.5869 20.5013 71.0323 20C70.4776 19.488 69.7149 19.232 68.7443 19.232C67.7949 19.232 67.0643 19.4773 66.5523 19.968C66.0509 20.4587 65.8003 21.1733 65.8003 22.112C65.8003 22.9973 66.0563 23.6907 66.5683 24.192C67.0803 24.6827 67.7949 24.928 68.7123 24.928ZM76.0561 26.16C75.8215 26.16 75.6401 26.096 75.5121 25.968C75.3948 25.8293 75.3361 25.6427 75.3361 25.408V18.752C75.3361 18.2507 75.5761 18 76.0561 18C76.2801 18 76.4561 18.0693 76.5841 18.208C76.7121 18.336 76.7761 18.5173 76.7761 18.752V19.568C77.4801 18.6293 78.4348 18.16 79.6401 18.16H80.0241C80.2801 18.16 80.4775 18.2133 80.6161 18.32C80.7548 18.4267 80.8241 18.5813 80.8241 18.784C80.8241 18.976 80.7495 19.1253 80.6001 19.232C80.4615 19.3387 80.2695 19.392 80.0241 19.392H79.5441C78.7015 19.392 78.0348 19.6427 77.5441 20.144C77.0535 20.6347 76.8081 21.3067 76.8081 22.16V25.408C76.8081 25.6427 76.7388 25.8293 76.6001 25.968C76.4721 26.096 76.2908 26.16 76.0561 26.16ZM84.5785 26.16C83.5438 26.16 82.7225 25.9253 82.1145 25.456C81.5172 24.9867 81.2185 24.352 81.2185 23.552C81.2185 22.752 81.5332 22.1173 82.1625 21.648C82.8025 21.1787 83.6718 20.944 84.7705 20.944C85.3465 20.944 85.8585 21.0187 86.3065 21.168C86.7652 21.3173 87.1332 21.52 87.4105 21.776V20.976C87.4105 20.4 87.2238 19.9627 86.8505 19.664C86.4878 19.3547 85.9492 19.2 85.2345 19.2C84.2852 19.2 83.4638 19.4187 82.7705 19.856C82.5678 19.9733 82.3918 20.032 82.2425 20.032C82.1038 20.032 81.9652 19.9733 81.8265 19.856C81.7092 19.7387 81.6505 19.6 81.6505 19.44C81.6505 19.2587 81.7412 19.0933 81.9225 18.944C82.3065 18.656 82.7918 18.4267 83.3785 18.256C83.9652 18.0853 84.5785 18 85.2185 18C86.3812 18 87.2878 18.2667 87.9385 18.8C88.5892 19.3227 88.9145 20.0587 88.9145 21.008V25.44C88.9145 25.6747 88.8505 25.856 88.7225 25.984C88.6052 26.1013 88.4292 26.16 88.1945 26.16C87.9598 26.16 87.7785 26.1013 87.6505 25.984C87.5225 25.856 87.4585 25.6853 87.4585 25.472V25.024C86.8185 25.7813 85.8585 26.16 84.5785 26.16ZM84.8345 25.024C85.6132 25.024 86.2372 24.8853 86.7065 24.608C87.1865 24.32 87.4265 23.9467 87.4265 23.488C87.4265 23.04 87.1972 22.6933 86.7385 22.448C86.2905 22.192 85.6665 22.064 84.8665 22.064C84.1732 22.064 83.6398 22.192 83.2665 22.448C82.8932 22.704 82.7065 23.072 82.7065 23.552C82.7065 24.0213 82.8878 24.384 83.2505 24.64C83.6238 24.896 84.1518 25.024 84.8345 25.024ZM91.5561 26.16C91.3215 26.16 91.1401 26.096 91.0121 25.968C90.8948 25.8293 90.8361 25.6427 90.8361 25.408V18.752C90.8361 18.2507 91.0761 18 91.5561 18C91.7801 18 91.9561 18.0693 92.0841 18.208C92.2121 18.336 92.2761 18.5173 92.2761 18.752V19.568C92.9801 18.6293 93.9348 18.16 95.1401 18.16H95.5241C95.7801 18.16 95.9775 18.2133 96.1161 18.32C96.2548 18.4267 96.3241 18.5813 96.3241 18.784C96.3241 18.976 96.2495 19.1253 96.1001 19.232C95.9615 19.3387 95.7695 19.392 95.5241 19.392H95.0441C94.2015 19.392 93.5348 19.6427 93.0441 20.144C92.5535 20.6347 92.3081 21.3067 92.3081 22.16V25.408C92.3081 25.6427 92.2388 25.8293 92.1001 25.968C91.9721 26.096 91.7908 26.16 91.5561 26.16ZM103.447 26.16C103.223 26.16 103.041 26.096 102.903 25.968C102.775 25.8293 102.711 25.6427 102.711 25.408V15.392C102.711 15.1573 102.775 14.976 102.903 14.848C103.041 14.7093 103.223 14.64 103.447 14.64C103.681 14.64 103.868 14.7093 104.007 14.848C104.145 14.976 104.215 15.1573 104.215 15.392V25.408C104.215 25.6427 104.145 25.8293 104.007 25.968C103.868 26.096 103.681 26.16 103.447 26.16ZM103.431 13.296C103.143 13.296 102.903 13.2053 102.711 13.024C102.519 12.8427 102.423 12.624 102.423 12.368C102.423 12.1013 102.519 11.8773 102.711 11.696C102.903 11.504 103.143 11.408 103.431 11.408C103.697 11.408 103.927 11.504 104.119 11.696C104.311 11.8773 104.407 12.1013 104.407 12.368C104.407 12.6133 104.311 12.832 104.119 13.024C103.927 13.2053 103.697 13.296 103.431 13.296ZM107.587 26.16C107.353 26.16 107.171 26.096 107.043 25.968C106.926 25.8293 106.867 25.6427 106.867 25.408V18.752C106.867 18.2507 107.107 18 107.587 18C107.811 18 107.987 18.0693 108.115 18.208C108.243 18.336 108.307 18.5173 108.307 18.752V19.536C109.097 18.512 110.169 18 111.523 18C112.547 18 113.337 18.2987 113.891 18.896C114.457 19.4827 114.739 20.3147 114.739 21.392V25.408C114.739 25.6427 114.67 25.8293 114.531 25.968C114.403 26.096 114.227 26.16 114.003 26.16C113.769 26.16 113.587 26.096 113.459 25.968C113.331 25.8293 113.267 25.6427 113.267 25.408V21.392C113.267 20.6773 113.097 20.1387 112.755 19.776C112.425 19.4133 111.929 19.232 111.267 19.232C110.371 19.232 109.657 19.4987 109.123 20.032C108.601 20.5547 108.339 21.264 108.339 22.16V25.408C108.339 25.6427 108.27 25.8293 108.131 25.968C108.003 26.096 107.822 26.16 107.587 26.16ZM117.384 26.16C117.15 26.16 116.968 26.096 116.84 25.968C116.723 25.8293 116.664 25.6427 116.664 25.408V18.752C116.664 18.2507 116.904 18 117.384 18C117.608 18 117.784 18.0693 117.912 18.208C118.04 18.336 118.104 18.5173 118.104 18.752V19.536C118.894 18.512 119.966 18 121.32 18C122.344 18 123.134 18.2987 123.688 18.896C124.254 19.4827 124.536 20.3147 124.536 21.392V25.408C124.536 25.6427 124.467 25.8293 124.328 25.968C124.2 26.096 124.024 26.16 123.8 26.16C123.566 26.16 123.384 26.096 123.256 25.968C123.128 25.8293 123.064 25.6427 123.064 25.408V21.392C123.064 20.6773 122.894 20.1387 122.552 19.776C122.222 19.4133 121.726 19.232 121.064 19.232C120.168 19.232 119.454 19.4987 118.92 20.032C118.398 20.5547 118.136 21.264 118.136 22.16V25.408C118.136 25.6427 118.067 25.8293 117.928 25.968C117.8 26.096 117.619 26.16 117.384 26.16ZM130.403 26.16C129.475 26.16 128.669 25.9787 127.987 25.616C127.304 25.2533 126.781 24.7627 126.419 24.144C126.067 23.5253 125.891 22.8373 125.891 22.08C125.891 21.3227 126.067 20.6347 126.419 20.016C126.781 19.3973 127.304 18.9067 127.987 18.544C128.669 18.1813 129.475 18 130.403 18C131.331 18 132.131 18.1813 132.803 18.544C133.485 18.9067 134.003 19.3973 134.355 20.016C134.717 20.6347 134.899 21.3227 134.899 22.08C134.899 22.8373 134.717 23.5253 134.355 24.144C134.003 24.7627 133.485 25.2533 132.803 25.616C132.131 25.9787 131.331 26.16 130.403 26.16ZM130.403 24.928C131.32 24.928 132.051 24.6773 132.595 24.176C133.139 23.6747 133.411 22.976 133.411 22.08C133.411 21.184 133.139 20.4853 132.595 19.984C132.051 19.4827 131.32 19.232 130.403 19.232C129.485 19.232 128.749 19.4827 128.195 19.984C127.651 20.4853 127.379 21.184 127.379 22.08C127.379 22.976 127.651 23.6747 128.195 24.176C128.749 24.6773 129.485 24.928 130.403 24.928ZM139.944 26.16C138.845 26.16 138.066 25.4987 137.608 24.176L135.72 18.896C135.688 18.8107 135.672 18.736 135.672 18.672C135.672 18.5333 135.72 18.4107 135.816 18.304C135.912 18.1867 136.04 18.1013 136.2 18.048C136.296 18.016 136.392 18 136.488 18C136.648 18 136.786 18.0427 136.904 18.128C137.021 18.2027 137.101 18.3093 137.144 18.448L139.08 23.872C139.218 24.2667 139.352 24.544 139.48 24.704C139.608 24.864 139.762 24.944 139.944 24.944C140.125 24.944 140.28 24.8693 140.408 24.72C140.536 24.56 140.669 24.288 140.808 23.904L142.744 18.448C142.797 18.3093 142.877 18.2027 142.984 18.128C143.101 18.0533 143.24 18.016 143.4 18.016C143.645 18.016 143.842 18.0853 143.992 18.224C144.141 18.352 144.216 18.5067 144.216 18.688C144.216 18.784 144.205 18.8533 144.184 18.896L142.28 24.208C142.034 24.8693 141.72 25.36 141.336 25.68C140.962 26 140.498 26.16 139.944 26.16ZM148.235 26.16C147.2 26.16 146.379 25.9253 145.771 25.456C145.173 24.9867 144.875 24.352 144.875 23.552C144.875 22.752 145.189 22.1173 145.819 21.648C146.459 21.1787 147.328 20.944 148.427 20.944C149.003 20.944 149.515 21.0187 149.963 21.168C150.421 21.3173 150.789 21.52 151.067 21.776V20.976C151.067 20.4 150.88 19.9627 150.507 19.664C150.144 19.3547 149.605 19.2 148.891 19.2C147.941 19.2 147.12 19.4187 146.427 19.856C146.224 19.9733 146.048 20.032 145.899 20.032C145.76 20.032 145.621 19.9733 145.483 19.856C145.365 19.7387 145.307 19.6 145.307 19.44C145.307 19.2587 145.397 19.0933 145.579 18.944C145.963 18.656 146.448 18.4267 147.035 18.256C147.621 18.0853 148.235 18 148.875 18C150.037 18 150.944 18.2667 151.595 18.8C152.245 19.3227 152.571 20.0587 152.571 21.008V25.44C152.571 25.6747 152.507 25.856 152.379 25.984C152.261 26.1013 152.085 26.16 151.851 26.16C151.616 26.16 151.435 26.1013 151.307 25.984C151.179 25.856 151.115 25.6853 151.115 25.472V25.024C150.475 25.7813 149.515 26.16 148.235 26.16ZM148.491 25.024C149.269 25.024 149.893 24.8853 150.363 24.608C150.843 24.32 151.083 23.9467 151.083 23.488C151.083 23.04 150.853 22.6933 150.395 22.448C149.947 22.192 149.323 22.064 148.523 22.064C147.829 22.064 147.296 22.192 146.923 22.448C146.549 22.704 146.363 23.072 146.363 23.552C146.363 24.0213 146.544 24.384 146.907 24.64C147.28 24.896 147.808 25.024 148.491 25.024ZM158.044 26.16C157.223 26.16 156.492 26.0213 155.852 25.744C155.212 25.456 154.706 25.072 154.332 24.592C154.226 24.4533 154.172 24.3147 154.172 24.176C154.172 23.9413 154.284 23.7653 154.508 23.648C154.604 23.5947 154.706 23.568 154.812 23.568C154.994 23.568 155.18 23.664 155.372 23.856C155.724 24.2293 156.114 24.5013 156.54 24.672C156.967 24.8427 157.458 24.928 158.012 24.928C158.524 24.928 158.94 24.848 159.26 24.688C159.591 24.5173 159.756 24.288 159.756 24C159.756 23.7867 159.692 23.6107 159.564 23.472C159.447 23.3333 159.239 23.2 158.94 23.072C158.642 22.944 158.172 22.7733 157.532 22.56C156.455 22.2187 155.692 21.8667 155.244 21.504C154.807 21.1413 154.588 20.6667 154.588 20.08C154.588 19.4507 154.86 18.9493 155.404 18.576C155.959 18.192 156.706 18 157.644 18C158.338 18 158.978 18.1173 159.564 18.352C160.162 18.576 160.604 18.8853 160.892 19.28C160.988 19.408 161.036 19.5413 161.036 19.68C161.036 19.8613 160.94 20.016 160.748 20.144C160.61 20.2293 160.471 20.272 160.332 20.272C160.119 20.272 159.916 20.176 159.724 19.984C159.468 19.728 159.17 19.5413 158.828 19.424C158.498 19.296 158.098 19.232 157.628 19.232C157.127 19.232 156.743 19.3067 156.476 19.456C156.22 19.6053 156.092 19.8187 156.092 20.096C156.092 20.3093 156.151 20.48 156.268 20.608C156.386 20.736 156.588 20.8587 156.876 20.976C157.164 21.0933 157.644 21.2587 158.316 21.472C159.063 21.7067 159.644 21.9413 160.06 22.176C160.487 22.4107 160.791 22.672 160.972 22.96C161.154 23.248 161.244 23.5947 161.244 24C161.244 24.6507 160.951 25.1733 160.364 25.568C159.788 25.9627 159.015 26.16 158.044 26.16ZM163.922 16.544C163.645 16.544 163.41 16.4587 163.218 16.288C163.026 16.1067 162.93 15.8827 162.93 15.616C162.93 15.3493 163.026 15.1253 163.218 14.944C163.41 14.7627 163.645 14.672 163.922 14.672C164.221 14.672 164.466 14.7627 164.658 14.944C164.861 15.1253 164.962 15.3493 164.962 15.616C164.962 15.872 164.861 16.0907 164.658 16.272C164.466 16.4533 164.221 16.544 163.922 16.544ZM163.938 26.16C163.703 26.16 163.522 26.096 163.394 25.968C163.266 25.8293 163.202 25.6427 163.202 25.408V18.752C163.202 18.5173 163.266 18.336 163.394 18.208C163.522 18.0693 163.703 18 163.938 18C164.173 18 164.354 18.0693 164.482 18.208C164.61 18.336 164.674 18.5173 164.674 18.752V25.408C164.674 25.6427 164.61 25.8293 164.482 25.968C164.354 26.096 164.173 26.16 163.938 26.16ZM170.673 30C169.883 30 169.174 29.8827 168.545 29.648C167.926 29.4133 167.467 29.088 167.169 28.672C167.073 28.544 167.025 28.4107 167.025 28.272C167.025 28.0693 167.121 27.8933 167.313 27.744C167.43 27.6587 167.553 27.616 167.681 27.616C167.905 27.616 168.113 27.7227 168.305 27.936C168.529 28.2027 168.849 28.4107 169.265 28.56C169.681 28.7093 170.134 28.784 170.625 28.784C171.521 28.784 172.219 28.5227 172.721 28C173.222 27.488 173.473 26.7787 173.473 25.872V24.928C173.174 25.2907 172.785 25.5787 172.305 25.792C171.825 25.9947 171.318 26.096 170.785 26.096C169.473 26.096 168.449 25.7333 167.713 25.008C166.977 24.272 166.609 23.2533 166.609 21.952V18.688C166.609 18.496 166.678 18.336 166.817 18.208C166.966 18.08 167.147 18.016 167.361 18.016C167.563 18.016 167.739 18.0853 167.889 18.224C168.038 18.352 168.113 18.5067 168.113 18.688V21.952C168.113 22.8907 168.347 23.6213 168.817 24.144C169.286 24.6667 169.942 24.928 170.785 24.928C171.617 24.928 172.257 24.6773 172.705 24.176C173.163 23.664 173.393 22.944 173.393 22.016V18.864C173.393 18.5867 173.462 18.3733 173.601 18.224C173.739 18.0747 173.931 18 174.177 18C174.422 18 174.609 18.0747 174.737 18.224C174.865 18.3733 174.929 18.5867 174.929 18.864V25.728C174.929 26.5813 174.753 27.328 174.401 27.968C174.059 28.6187 173.563 29.12 172.913 29.472C172.273 29.824 171.526 30 170.673 30ZM179.907 26.16C178.872 26.16 178.051 25.9253 177.443 25.456C176.845 24.9867 176.547 24.352 176.547 23.552C176.547 22.752 176.861 22.1173 177.491 21.648C178.131 21.1787 179 20.944 180.099 20.944C180.675 20.944 181.187 21.0187 181.635 21.168C182.093 21.3173 182.461 21.52 182.739 21.776V20.976C182.739 20.4 182.552 19.9627 182.179 19.664C181.816 19.3547 181.277 19.2 180.563 19.2C179.613 19.2 178.792 19.4187 178.099 19.856C177.896 19.9733 177.72 20.032 177.571 20.032C177.432 20.032 177.293 19.9733 177.155 19.856C177.037 19.7387 176.979 19.6 176.979 19.44C176.979 19.2587 177.069 19.0933 177.251 18.944C177.635 18.656 178.12 18.4267 178.707 18.256C179.293 18.0853 179.907 18 180.547 18C181.709 18 182.616 18.2667 183.267 18.8C183.917 19.3227 184.243 20.0587 184.243 21.008V25.44C184.243 25.6747 184.179 25.856 184.051 25.984C183.933 26.1013 183.757 26.16 183.523 26.16C183.288 26.16 183.107 26.1013 182.979 25.984C182.851 25.856 182.787 25.6853 182.787 25.472V25.024C182.147 25.7813 181.187 26.16 179.907 26.16ZM180.163 25.024C180.941 25.024 181.565 24.8853 182.035 24.608C182.515 24.32 182.755 23.9467 182.755 23.488C182.755 23.04 182.525 22.6933 182.067 22.448C181.619 22.192 180.995 22.064 180.195 22.064C179.501 22.064 178.968 22.192 178.595 22.448C178.221 22.704 178.035 23.072 178.035 23.552C178.035 24.0213 178.216 24.384 178.579 24.64C178.952 24.896 179.48 25.024 180.163 25.024ZM53.84 46.16C53.616 46.16 53.4347 46.096 53.296 45.968C53.168 45.8293 53.104 45.6427 53.104 45.408V38.4C53.104 37.2267 53.4293 36.3093 54.08 35.648C54.7413 34.976 55.6533 34.64 56.816 34.64C57.456 34.64 58.048 34.8 58.592 35.12C59.136 35.44 59.5627 35.8773 59.872 36.432C60.1813 35.8667 60.6027 35.4293 61.136 35.12C61.6693 34.8 62.2613 34.64 62.912 34.64C64.0747 34.64 64.9867 34.976 65.648 35.648C66.3093 36.3093 66.64 37.2267 66.64 38.4V45.408C66.64 45.6427 66.5707 45.8293 66.432 45.968C66.2933 46.096 66.1067 46.16 65.872 46.16C65.6373 46.16 65.456 46.096 65.328 45.968C65.2 45.8293 65.136 45.6427 65.136 45.408V38.4C65.136 37.5573 64.96 36.928 64.608 36.512C64.256 36.096 63.6747 35.888 62.864 35.888C62.16 35.888 61.6053 36.112 61.2 36.56C60.8053 36.9973 60.608 37.6107 60.608 38.4V45.408C60.608 45.6427 60.5387 45.8293 60.4 45.968C60.272 46.096 60.096 46.16 59.872 46.16C59.6373 46.16 59.456 46.096 59.328 45.968C59.2 45.8293 59.136 45.6427 59.136 45.408V38.4C59.136 37.632 58.928 37.024 58.512 36.576C58.1067 36.1173 57.5573 35.888 56.864 35.888C56.064 35.888 55.488 36.1013 55.136 36.528C54.784 36.944 54.608 37.568 54.608 38.4V45.408C54.608 45.6427 54.5387 45.8293 54.4 45.968C54.2613 46.096 54.0747 46.16 53.84 46.16ZM72.806 46.144C71.9527 46.144 71.1953 46.0107 70.534 45.744C69.8833 45.4773 69.3767 45.1093 69.014 44.64C68.6513 44.16 68.47 43.616 68.47 43.008C68.47 42.5387 68.6033 42.176 68.87 41.92C69.1473 41.664 69.5313 41.536 70.022 41.536H75.718C75.718 40.8213 75.446 40.256 74.902 39.84C74.3687 39.424 73.638 39.216 72.71 39.216C72.1553 39.216 71.67 39.2853 71.254 39.424C70.838 39.552 70.4433 39.7653 70.07 40.064C69.8247 40.2453 69.6273 40.336 69.478 40.336C69.35 40.336 69.2273 40.2773 69.11 40.16C68.9607 39.9893 68.886 39.8347 68.886 39.696C68.886 39.536 68.9607 39.392 69.11 39.264C70.0167 38.4213 71.2167 38 72.71 38C74.1287 38 75.2273 38.3573 76.006 39.072C76.7953 39.7867 77.19 40.784 77.19 42.064C77.19 42.896 77.014 43.6213 76.662 44.24C76.31 44.848 75.8033 45.3173 75.142 45.648C74.4807 45.9787 73.702 46.144 72.806 46.144ZM72.806 44.928C73.67 44.928 74.3633 44.72 74.886 44.304C75.4193 43.888 75.686 43.344 75.686 42.672H70.486C70.294 42.672 70.15 42.7093 70.054 42.784C69.9687 42.8587 69.926 42.992 69.926 43.184C69.926 43.7067 70.1873 44.128 70.71 44.448C71.2433 44.768 71.942 44.928 72.806 44.928ZM79.6186 46.16C79.384 46.16 79.2026 46.096 79.0746 45.968C78.9573 45.8293 78.8986 45.6427 78.8986 45.408V38.752C78.8986 38.2507 79.1386 38 79.6186 38C79.8426 38 80.0186 38.0693 80.1466 38.208C80.2746 38.336 80.3386 38.5173 80.3386 38.752V39.568C81.0426 38.6293 81.9973 38.16 83.2026 38.16H83.5866C83.8426 38.16 84.04 38.2133 84.1786 38.32C84.3173 38.4267 84.3866 38.5813 84.3866 38.784C84.3866 38.976 84.312 39.1253 84.1626 39.232C84.024 39.3387 83.832 39.392 83.5866 39.392H83.1066C82.264 39.392 81.5973 39.6427 81.1066 40.144C80.616 40.6347 80.3706 41.3067 80.3706 42.16V45.408C80.3706 45.6427 80.3013 45.8293 80.1626 45.968C80.0346 46.096 79.8533 46.16 79.6186 46.16ZM86.6038 46.16C86.3691 46.16 86.1878 46.096 86.0598 45.968C85.9318 45.8293 85.8678 45.6427 85.8678 45.408V34.608C85.8678 34.3733 85.9318 34.192 86.0598 34.064C86.1878 33.9253 86.3691 33.856 86.6038 33.856C86.8278 33.856 87.0038 33.9253 87.1318 34.064C87.2704 34.192 87.3398 34.3733 87.3398 34.608V41.504L92.4438 38.112C92.5824 38.016 92.7318 37.968 92.8918 37.968C93.1051 37.968 93.2651 38.064 93.3718 38.256C93.4358 38.384 93.4678 38.5013 93.4678 38.608C93.4678 38.8213 93.3558 39.0027 93.1318 39.152L90.3958 40.944C91.3344 41.552 92.0491 42.2133 92.5398 42.928C93.0304 43.632 93.3611 44.4587 93.5318 45.408C93.5638 45.6213 93.5211 45.8027 93.4038 45.952C93.2864 46.0907 93.1158 46.16 92.8918 46.16C92.6891 46.16 92.5184 46.112 92.3798 46.016C92.2518 45.9307 92.1664 45.8027 92.1238 45.632C91.8891 44.6507 91.5691 43.8827 91.1638 43.328C90.7584 42.7627 90.1184 42.2133 89.2438 41.68L87.3398 42.976V45.408C87.3398 45.6427 87.2758 45.8293 87.1478 45.968C87.0198 46.096 86.8384 46.16 86.6038 46.16ZM98.8685 46.144C98.0152 46.144 97.2578 46.0107 96.5965 45.744C95.9458 45.4773 95.4392 45.1093 95.0765 44.64C94.7138 44.16 94.5325 43.616 94.5325 43.008C94.5325 42.5387 94.6658 42.176 94.9325 41.92C95.2098 41.664 95.5938 41.536 96.0845 41.536H101.781C101.781 40.8213 101.509 40.256 100.965 39.84C100.431 39.424 99.7005 39.216 98.7725 39.216C98.2178 39.216 97.7325 39.2853 97.3165 39.424C96.9005 39.552 96.5058 39.7653 96.1325 40.064C95.8872 40.2453 95.6898 40.336 95.5405 40.336C95.4125 40.336 95.2898 40.2773 95.1725 40.16C95.0232 39.9893 94.9485 39.8347 94.9485 39.696C94.9485 39.536 95.0232 39.392 95.1725 39.264C96.0792 38.4213 97.2792 38 98.7725 38C100.191 38 101.29 38.3573 102.069 39.072C102.858 39.7867 103.253 40.784 103.253 42.064C103.253 42.896 103.077 43.6213 102.725 44.24C102.373 44.848 101.866 45.3173 101.205 45.648C100.543 45.9787 99.7645 46.144 98.8685 46.144ZM98.8685 44.928C99.7325 44.928 100.426 44.72 100.949 44.304C101.482 43.888 101.749 43.344 101.749 42.672H96.5485C96.3565 42.672 96.2125 42.7093 96.1165 42.784C96.0312 42.8587 95.9885 42.992 95.9885 43.184C95.9885 43.7067 96.2498 44.128 96.7725 44.448C97.3058 44.768 98.0045 44.928 98.8685 44.928ZM106.721 46C106.038 46 105.516 45.8613 105.153 45.584C104.801 45.296 104.625 44.8853 104.625 44.352C104.625 43.6373 104.993 43.0987 105.729 42.736L110.113 40.544C110.316 40.4373 110.454 40.336 110.529 40.24C110.604 40.144 110.641 40.0213 110.641 39.872C110.641 39.7227 110.582 39.6053 110.465 39.52C110.348 39.4347 110.188 39.392 109.985 39.392H105.633C105.036 39.392 104.737 39.1893 104.737 38.784C104.737 38.368 105.036 38.16 105.633 38.16H110.001C110.662 38.16 111.174 38.304 111.537 38.592C111.91 38.88 112.097 39.2853 112.097 39.808C112.097 40.576 111.729 41.136 110.993 41.488L106.609 43.648C106.225 43.84 106.033 44.064 106.033 44.32C106.033 44.4587 106.086 44.5707 106.193 44.656C106.31 44.7307 106.465 44.768 106.657 44.768H111.329C111.926 44.768 112.225 44.9707 112.225 45.376C112.225 45.792 111.926 46 111.329 46H106.721ZM114.891 36.544C114.613 36.544 114.379 36.4587 114.187 36.288C113.995 36.1067 113.899 35.8827 113.899 35.616C113.899 35.3493 113.995 35.1253 114.187 34.944C114.379 34.7627 114.613 34.672 114.891 34.672C115.189 34.672 115.435 34.7627 115.627 34.944C115.829 35.1253 115.931 35.3493 115.931 35.616C115.931 35.872 115.829 36.0907 115.627 36.272C115.435 36.4533 115.189 36.544 114.891 36.544ZM114.907 46.16C114.672 46.16 114.491 46.096 114.363 45.968C114.235 45.8293 114.171 45.6427 114.171 45.408V38.752C114.171 38.5173 114.235 38.336 114.363 38.208C114.491 38.0693 114.672 38 114.907 38C115.141 38 115.323 38.0693 115.451 38.208C115.579 38.336 115.643 38.5173 115.643 38.752V45.408C115.643 45.6427 115.579 45.8293 115.451 45.968C115.323 46.096 115.141 46.16 114.907 46.16Z" fill="white"/>
</svg>
