<svg width="40" height="60" viewBox="0 0 40 60" fill="none" xmlns="http://www.w3.org/2000/svg">
<path fill-rule="evenodd" clip-rule="evenodd" d="M39.9329 28.1853C39.9329 28.1853 40 12.0817 19.9969 0C0.467884 12.0857 0.0610289 28.1853 0.0610289 28.1853C0.0223777 28.7011 0 29.2208 0 29.7445C0.00041667 34.1651 1.51757 38.4563 4.30633 41.925C7.09508 45.3937 10.9925 47.8372 15.369 48.8606V37.8983L8.13711 31.7015C7.65622 32.0302 7.07701 32.191 6.49215 32.1581C5.90729 32.1252 5.35056 31.9004 4.91103 31.5199C4.4715 31.1393 4.17456 30.6248 4.06771 30.0589C3.96087 29.4929 4.05029 28.908 4.32168 28.3978C4.59306 27.8877 5.03073 27.4817 5.56466 27.2448C6.09859 27.008 6.69795 26.9539 7.26684 27.0913C7.83573 27.2287 8.34128 27.5497 8.70263 28.0028C9.06398 28.4559 9.26025 29.0149 9.26003 29.5906C9.25942 29.7245 9.24854 29.8581 9.22748 29.9904L17.3931 36.9867V49.2204C18.2028 49.322 19.0179 49.3761 19.8342 49.3823V29.6905L12.464 24.1274V15.0861C11.9142 14.8388 11.4684 14.4121 11.2024 13.8784C10.9364 13.3448 10.8667 12.7371 11.0049 12.1586C11.1432 11.5801 11.481 11.0665 11.961 10.705C12.4409 10.3435 13.0334 10.1565 13.6378 10.1756C14.2422 10.1947 14.8213 10.4188 15.2766 10.8098C15.7319 11.2009 16.0355 11.7347 16.1356 12.3208C16.2358 12.9068 16.1264 13.5088 15.8261 14.0246C15.5258 14.5403 15.053 14.938 14.4881 15.1501V23.1459L19.8423 27.1779V19.5818C19.2813 19.3599 18.8156 18.954 18.5244 18.4331C18.2332 17.9122 18.1343 17.3083 18.2446 16.724C18.3549 16.1396 18.6675 15.6107 19.1295 15.2271C19.5914 14.8434 20.1742 14.6286 20.7789 14.6191C21.3837 14.6096 21.9732 14.806 22.4474 15.1749C22.9215 15.5438 23.2512 16.0626 23.3805 16.6432C23.5097 17.2238 23.4306 17.8305 23.1565 18.3603C22.8824 18.8901 22.4302 19.3103 21.8766 19.5498V30.0164L26.1628 25.8066V22.1525C25.6014 21.9316 25.1351 21.5265 24.8432 21.006C24.5513 20.4856 24.4517 19.8819 24.5614 19.2975C24.6711 18.7131 24.9833 18.184 25.445 17.8002C25.9066 17.4163 26.4893 17.2014 27.094 17.1918C27.6987 17.1823 28.2881 17.3787 28.7621 17.7478C29.236 18.1168 29.5654 18.6358 29.6942 19.2164C29.8229 19.797 29.7431 20.4036 29.4684 20.933C29.1936 21.4624 28.7409 21.882 28.187 22.1205V26.6281L21.8807 32.8249V49.3143C22.6406 49.2454 23.3958 49.134 24.1428 48.9805V36.9927L31.8161 30.4162C31.5986 29.8612 31.5833 29.2494 31.7728 28.6847C31.9623 28.1199 32.3449 27.637 32.8556 27.318C33.3664 26.999 33.9737 26.8636 34.5746 26.9347C35.1754 27.0058 35.7326 27.2791 36.1517 27.7082C36.5707 28.1372 36.8256 28.6956 36.8732 29.2884C36.9208 29.8812 36.7581 30.472 36.4127 30.9603C36.0674 31.4486 35.5606 31.8043 34.9786 31.9672C34.3965 32.13 33.7751 32.0898 33.2198 31.8534L26.1669 37.8983V48.4408C30.1873 47.1604 33.6915 44.6614 36.1767 41.3025C38.6619 37.9436 40.0004 33.8974 40 29.7445C39.9959 29.2208 39.9736 28.7011 39.9329 28.1853Z" fill="#6EBE47"/>
<path fill-rule="evenodd" clip-rule="evenodd" d="M35.805 29.3925C35.805 29.6684 35.7212 29.938 35.5642 30.1673C35.4071 30.3966 35.1839 30.5754 34.9228 30.6809C34.6617 30.7864 34.3743 30.8141 34.0971 30.7603C33.8199 30.7064 33.5652 30.5736 33.3654 30.3786C33.1655 30.1836 33.0294 29.9351 32.9742 29.6646C32.9191 29.3941 32.9474 29.1137 33.0556 28.8589C33.1637 28.6041 33.3469 28.3863 33.5819 28.2331C33.8169 28.0798 34.0932 27.998 34.3759 27.998C34.7549 27.998 35.1184 28.145 35.3864 28.4065C35.6545 28.668 35.805 29.0227 35.805 29.3925Z" fill="#6EBE47"/>
<path fill-rule="evenodd" clip-rule="evenodd" d="M28.6556 19.6933C28.6556 19.9691 28.5718 20.2387 28.4148 20.4681C28.2577 20.6974 28.0345 20.8761 27.7734 20.9817C27.5122 21.0872 27.2249 21.1148 26.9477 21.061C26.6705 21.0072 26.4158 20.8744 26.2159 20.6794C26.0161 20.4844 25.88 20.2359 25.8248 19.9654C25.7697 19.6949 25.798 19.4145 25.9062 19.1597C26.0143 18.9049 26.1975 18.6871 26.4325 18.5338C26.6675 18.3806 26.9438 18.2988 27.2265 18.2988C27.6055 18.2988 27.969 18.4457 28.237 18.7073C28.505 18.9688 28.6556 19.3235 28.6556 19.6933Z" fill="#6EBE47"/>
<path fill-rule="evenodd" clip-rule="evenodd" d="M22.326 17.1338C22.326 17.4096 22.2422 17.6792 22.0852 17.9085C21.9281 18.1378 21.7049 18.3166 21.4438 18.4221C21.1827 18.5277 20.8953 18.5553 20.6181 18.5015C20.3409 18.4477 20.0862 18.3148 19.8864 18.1198C19.6865 17.9248 19.5504 17.6763 19.4952 17.4058C19.4401 17.1353 19.4684 16.8549 19.5766 16.6001C19.6847 16.3453 19.8679 16.1275 20.1029 15.9743C20.3379 15.821 20.6142 15.7393 20.8969 15.7393C21.2759 15.7393 21.6394 15.8862 21.9074 16.1477C22.1755 16.4092 22.326 16.7639 22.326 17.1338Z" fill="#6EBE47"/>
<path fill-rule="evenodd" clip-rule="evenodd" d="M15.035 12.6992C15.035 12.975 14.9512 13.2446 14.7942 13.4739C14.6371 13.7033 14.4139 13.882 14.1528 13.9875C13.8916 14.0931 13.6043 14.1207 13.3271 14.0669C13.0499 14.0131 12.7952 13.8803 12.5953 13.6852C12.3955 13.4902 12.2594 13.2417 12.2042 12.9712C12.1491 12.7007 12.1774 12.4203 12.2855 12.1655C12.3937 11.9107 12.5769 11.6929 12.8119 11.5397C13.0469 11.3865 13.3232 11.3047 13.6059 11.3047C13.9849 11.3047 14.3484 11.4516 14.6164 11.7131C14.8844 11.9746 15.035 12.3293 15.035 12.6992V12.6992Z" fill="#6EBE47"/>
<path fill-rule="evenodd" clip-rule="evenodd" d="M8.10825 29.4853C8.10825 29.7611 8.02443 30.0307 7.8674 30.2601C7.71036 30.4894 7.48716 30.6681 7.22602 30.7737C6.96489 30.8792 6.67754 30.9068 6.40031 30.853C6.12309 30.7992 5.86845 30.6664 5.66858 30.4714C5.46872 30.2764 5.3326 30.0279 5.27746 29.7574C5.22232 29.4869 5.25062 29.2065 5.35879 28.9517C5.46695 28.6969 5.65013 28.4791 5.88515 28.3258C6.12016 28.1726 6.39647 28.0908 6.67912 28.0908C7.05815 28.0908 7.42165 28.2377 7.68966 28.4993C7.95768 28.7608 8.10825 29.1155 8.10825 29.4853V29.4853Z" fill="#6EBE47"/>
<path fill-rule="evenodd" clip-rule="evenodd" d="M23.1203 59.9998H18.7227L19.917 49.219L21.9504 49.1357L23.1203 59.9998Z" fill="#6EBE47"/>
</svg>
